<?xml version="1.0" encoding="UTF-8"?>
<svg version="1.1" xmlns="http://www.w3.org/2000/svg" width="567" height="359">
<path d="M0 0 C187.11 0 374.22 0 567 0 C567 118.47 567 236.94 567 359 C379.89 359 192.78 359 0 359 C0 240.53 0 122.06 0 0 Z " fill="#FEFEFE" transform="translate(0,0)"/>
<path d="M0 0 C1.10968643 -0.00511093 2.21937286 -0.01022186 3.36268616 -0.01548767 C7.02521176 -0.02936968 10.68754889 -0.02842785 14.35009766 -0.02612305 C16.90068634 -0.03001084 19.45127437 -0.03434568 22.00186157 -0.03910828 C27.34647996 -0.04656759 32.69102941 -0.04642003 38.03564453 -0.04101562 C44.19890366 -0.03497888 50.36193432 -0.04728294 56.52515447 -0.06858569 C62.47106232 -0.08837586 68.41689986 -0.09136945 74.36284256 -0.08785057 C76.88496054 -0.08836331 79.40708221 -0.0935921 81.92918015 -0.10366249 C85.45947506 -0.11602822 88.98924445 -0.10923368 92.51953125 -0.09765625 C94.07525093 -0.10912186 94.07525093 -0.10912186 95.66239929 -0.12081909 C106.5159027 -0.04233098 114.1763892 3.53463364 121.88916016 11.2746582 C125.74085922 16.41025696 126.05602721 21.27419782 125.97509766 27.5793457 C125.96269043 28.83473145 125.9502832 30.09011719 125.9375 31.38354492 C125.92154785 32.3376123 125.9055957 33.29167969 125.88916016 34.2746582 C126.95689667 34.26355515 128.02463318 34.25245209 129.12472534 34.24101257 C139.21679043 34.1393887 149.30875088 34.06457419 159.40121269 34.01559734 C164.58914491 33.98957068 169.77666207 33.95429975 174.96435547 33.89746094 C179.97646251 33.84289337 184.98817183 33.8131856 190.00055313 33.80027199 C191.90703715 33.79107638 193.81350089 33.77311975 195.7198143 33.74600792 C207.5669806 33.58430928 216.49177724 33.69396247 225.82666016 41.8371582 C226.50728516 42.6415332 227.18791016 43.4459082 227.88916016 44.2746582 C228.75541016 45.2955957 228.75541016 45.2955957 229.63916016 46.3371582 C232.41658532 50.6421672 232.03507044 55.32017173 232.02197266 60.2902832 C232.02329193 61.08678284 232.02461121 61.88328247 232.02597046 62.70391846 C232.02789183 65.3108708 232.02153448 67.91771669 232.01416016 70.5246582 C232.01327393 71.41016357 232.0123877 72.29566895 232.01147461 73.20800781 C231.99148819 90.24412338 231.5677237 107.25281961 230.88916016 124.2746582 C230.55916016 124.2746582 230.22916016 124.2746582 229.88916016 124.2746582 C228.98383569 108.90030871 228.88916016 93.70965078 228.88916016 78.2746582 C191.92916016 78.2746582 154.96916016 78.2746582 116.88916016 78.2746582 C119.85916016 81.9046582 122.82916016 85.5346582 125.88916016 89.2746582 C138.79535609 107.9886423 142.13393783 126.10867977 141.88916016 148.2746582 C141.55916016 148.2746582 141.22916016 148.2746582 140.88916016 148.2746582 C140.82970215 147.69723877 140.77024414 147.11981934 140.70898438 146.52490234 C137.97777967 121.13174036 130.47027858 96.88347425 110.00634766 79.9230957 C102.38935947 73.99252557 94.63944088 69.36228934 85.88916016 65.2746582 C84.75478516 64.7177832 83.62041016 64.1609082 82.45166016 63.5871582 C60.40199761 55.46359832 35.60188123 57.35326973 14.39379883 67.08105469 C7.1632918 70.60023733 0.82031846 74.81011201 -5.11083984 80.2746582 C-5.88943359 80.98493164 -6.66802734 81.69520508 -7.47021484 82.42700195 C-19.02824765 93.4614326 -28.15345454 108.68495853 -32.11083984 124.2746582 C-32.30162109 124.9655957 -32.49240234 125.6565332 -32.68896484 126.3684082 C-34.79249663 135.14314081 -34.76057248 144.29675252 -35.11083984 153.2746582 C-35.44083984 153.2746582 -35.77083984 153.2746582 -36.11083984 153.2746582 C-36.94469755 123.84268824 -36.94469755 123.84268824 -32.11083984 111.2746582 C-31.64291016 110.03329102 -31.64291016 110.03329102 -31.16552734 108.7668457 C-30.24214215 106.53985788 -29.21350162 104.41807794 -28.11083984 102.2746582 C-27.69189453 101.41614258 -27.27294922 100.55762695 -26.84130859 99.6730957 C-23.18348677 92.51867837 -18.71026434 86.06446313 -13.11083984 80.2746582 C-12.45083984 80.2746582 -11.79083984 80.2746582 -11.11083984 80.2746582 C-11.11083984 79.6146582 -11.11083984 78.9546582 -11.11083984 78.2746582 C-52.03083984 78.2746582 -92.95083984 78.2746582 -135.11083984 78.2746582 C-135.11083984 84.2146582 -135.11083984 90.1546582 -135.11083984 96.2746582 C-135.16812838 100.07063325 -135.23413174 103.86274728 -135.32958984 107.6574707 C-135.35178589 108.60862762 -135.37398193 109.55978455 -135.39685059 110.5397644 C-135.46620993 113.49311315 -135.53845325 116.44638228 -135.61083984 119.3996582 C-135.65921098 121.43741402 -135.70738912 123.47517443 -135.75537109 125.51293945 C-135.87164463 130.43356792 -135.99049904 135.35412759 -136.11083984 140.2746582 C-136.44083984 140.2746582 -136.77083984 140.2746582 -137.11083984 140.2746582 C-137.97212245 121.05156335 -138.28945946 101.81658862 -138.39794922 82.57568359 C-138.41483754 80.04746924 -138.43873119 77.5192917 -138.46972656 74.99121094 C-138.51184096 71.38759047 -138.52742666 67.78474462 -138.53662109 64.1809082 C-138.5540889 63.09865967 -138.5715567 62.01641113 -138.58955383 60.90136719 C-138.56669066 52.83246282 -136.99418624 47.5184229 -131.61083984 41.4621582 C-130.78583984 40.7402832 -129.96083984 40.0184082 -129.11083984 39.2746582 C-128.49208984 38.7177832 -127.87333984 38.1609082 -127.23583984 37.5871582 C-120.36459524 33.34315418 -112.91820217 34.0633311 -105.11083984 34.2746582 C-105.04896484 33.5527832 -104.98708984 32.8309082 -104.92333984 32.0871582 C-103.81938215 28.26576619 -102.18520813 26.77679854 -99.11083984 24.2746582 C-95.70092773 23.64355469 -95.70092773 23.64355469 -91.83349609 23.64575195 C-91.14452744 23.64334 -90.45555878 23.64092804 -89.74571228 23.63844299 C-88.2942019 23.63941875 -86.84265306 23.65274817 -85.39135742 23.67773438 C-83.18261759 23.71201421 -80.97789163 23.69839354 -78.76904297 23.67895508 C-77.35301048 23.68585571 -75.93698824 23.69553009 -74.52099609 23.70825195 C-73.24361572 23.71912842 -71.96623535 23.73000488 -70.65014648 23.74121094 C-66.43314606 24.37680078 -64.27737925 25.42456455 -61.11083984 28.2746582 C-60.61583984 31.2446582 -60.61583984 31.2446582 -60.11083984 34.2746582 C-50.87083984 34.2746582 -41.63083984 34.2746582 -32.11083984 34.2746582 C-32.11083984 29.6546582 -32.11083984 25.0346582 -32.11083984 20.2746582 C-29.81926769 12.25415565 -24.3141105 6.32649795 -17.11083984 2.2746582 C-11.46315015 -0.19073156 -6.04968732 -0.01439461 0 0 Z " fill="#FBFBFB" transform="translate(239.11083984375,103.725341796875)"/>
<path d="M0 0 C1.10968643 -0.00511093 2.21937286 -0.01022186 3.36268616 -0.01548767 C7.02521176 -0.02936968 10.68754889 -0.02842785 14.35009766 -0.02612305 C16.90068634 -0.03001084 19.45127437 -0.03434568 22.00186157 -0.03910828 C27.34647996 -0.04656759 32.69102941 -0.04642003 38.03564453 -0.04101562 C44.19890366 -0.03497888 50.36193432 -0.04728294 56.52515447 -0.06858569 C62.47106232 -0.08837586 68.41689986 -0.09136945 74.36284256 -0.08785057 C76.88496054 -0.08836331 79.40708221 -0.0935921 81.92918015 -0.10366249 C85.45947506 -0.11602822 88.98924445 -0.10923368 92.51953125 -0.09765625 C94.07525093 -0.10912186 94.07525093 -0.10912186 95.66239929 -0.12081909 C106.5159027 -0.04233098 114.1763892 3.53463364 121.88916016 11.2746582 C125.74085922 16.41025696 126.05602721 21.27419782 125.97509766 27.5793457 C125.96269043 28.83473145 125.9502832 30.09011719 125.9375 31.38354492 C125.92154785 32.3376123 125.9055957 33.29167969 125.88916016 34.2746582 C126.95689667 34.26355515 128.02463318 34.25245209 129.12472534 34.24101257 C139.21679043 34.1393887 149.30875088 34.06457419 159.40121269 34.01559734 C164.58914491 33.98957068 169.77666207 33.95429975 174.96435547 33.89746094 C179.97646251 33.84289337 184.98817183 33.8131856 190.00055313 33.80027199 C191.90703715 33.79107638 193.81350089 33.77311975 195.7198143 33.74600792 C207.5669806 33.58430928 216.49177724 33.69396247 225.82666016 41.8371582 C226.50728516 42.6415332 227.18791016 43.4459082 227.88916016 44.2746582 C228.75541016 45.2955957 228.75541016 45.2955957 229.63916016 46.3371582 C232.41658532 50.6421672 232.03507044 55.32017173 232.02197266 60.2902832 C232.02329193 61.08678284 232.02461121 61.88328247 232.02597046 62.70391846 C232.02789183 65.3108708 232.02153448 67.91771669 232.01416016 70.5246582 C232.01327393 71.41016357 232.0123877 72.29566895 232.01147461 73.20800781 C231.99148819 90.24412338 231.5677237 107.25281961 230.88916016 124.2746582 C230.55916016 124.2746582 230.22916016 124.2746582 229.88916016 124.2746582 C228.98383569 108.90030871 228.88916016 93.70965078 228.88916016 78.2746582 C191.92916016 78.2746582 154.96916016 78.2746582 116.88916016 78.2746582 C119.85916016 81.9046582 122.82916016 85.5346582 125.88916016 89.2746582 C138.79535609 107.9886423 142.13393783 126.10867977 141.88916016 148.2746582 C141.55916016 148.2746582 141.22916016 148.2746582 140.88916016 148.2746582 C140.82970215 147.69723877 140.77024414 147.11981934 140.70898438 146.52490234 C137.97777967 121.13174036 130.47027858 96.88347425 110.00634766 79.9230957 C102.38935947 73.99252557 94.63944088 69.36228934 85.88916016 65.2746582 C84.75478516 64.7177832 83.62041016 64.1609082 82.45166016 63.5871582 C60.40199761 55.46359832 35.60188123 57.35326973 14.39379883 67.08105469 C7.1632918 70.60023733 0.82031846 74.81011201 -5.11083984 80.2746582 C-5.88943359 80.98493164 -6.66802734 81.69520508 -7.47021484 82.42700195 C-19.02824765 93.4614326 -28.15345454 108.68495853 -32.11083984 124.2746582 C-32.30162109 124.9655957 -32.49240234 125.6565332 -32.68896484 126.3684082 C-34.79249663 135.14314081 -34.76057248 144.29675252 -35.11083984 153.2746582 C-35.44083984 153.2746582 -35.77083984 153.2746582 -36.11083984 153.2746582 C-36.94469755 123.84268824 -36.94469755 123.84268824 -32.11083984 111.2746582 C-31.64291016 110.03329102 -31.64291016 110.03329102 -31.16552734 108.7668457 C-30.24214215 106.53985788 -29.21350162 104.41807794 -28.11083984 102.2746582 C-27.69189453 101.41614258 -27.27294922 100.55762695 -26.84130859 99.6730957 C-23.18348677 92.51867837 -18.71026434 86.06446313 -13.11083984 80.2746582 C-12.45083984 80.2746582 -11.79083984 80.2746582 -11.11083984 80.2746582 C-11.11083984 79.6146582 -11.11083984 78.9546582 -11.11083984 78.2746582 C-52.03083984 78.2746582 -92.95083984 78.2746582 -135.11083984 78.2746582 C-135.11083984 84.2146582 -135.11083984 90.1546582 -135.11083984 96.2746582 C-135.16812838 100.07063325 -135.23413174 103.86274728 -135.32958984 107.6574707 C-135.35178589 108.60862762 -135.37398193 109.55978455 -135.39685059 110.5397644 C-135.46620993 113.49311315 -135.53845325 116.44638228 -135.61083984 119.3996582 C-135.65921098 121.43741402 -135.70738912 123.47517443 -135.75537109 125.51293945 C-135.87164463 130.43356792 -135.99049904 135.35412759 -136.11083984 140.2746582 C-136.44083984 140.2746582 -136.77083984 140.2746582 -137.11083984 140.2746582 C-137.97212245 121.05156335 -138.28945946 101.81658862 -138.39794922 82.57568359 C-138.41483754 80.04746924 -138.43873119 77.5192917 -138.46972656 74.99121094 C-138.51184096 71.38759047 -138.52742666 67.78474462 -138.53662109 64.1809082 C-138.5540889 63.09865967 -138.5715567 62.01641113 -138.58955383 60.90136719 C-138.56669066 52.83246282 -136.99418624 47.5184229 -131.61083984 41.4621582 C-130.78583984 40.7402832 -129.96083984 40.0184082 -129.11083984 39.2746582 C-128.49208984 38.7177832 -127.87333984 38.1609082 -127.23583984 37.5871582 C-120.36459524 33.34315418 -112.91820217 34.0633311 -105.11083984 34.2746582 C-105.04896484 33.5527832 -104.98708984 32.8309082 -104.92333984 32.0871582 C-103.81938215 28.26576619 -102.18520813 26.77679854 -99.11083984 24.2746582 C-95.70092773 23.64355469 -95.70092773 23.64355469 -91.83349609 23.64575195 C-91.14452744 23.64334 -90.45555878 23.64092804 -89.74571228 23.63844299 C-88.2942019 23.63941875 -86.84265306 23.65274817 -85.39135742 23.67773438 C-83.18261759 23.71201421 -80.97789163 23.69839354 -78.76904297 23.67895508 C-77.35301048 23.68585571 -75.93698824 23.69553009 -74.52099609 23.70825195 C-73.24361572 23.71912842 -71.96623535 23.73000488 -70.65014648 23.74121094 C-66.43314606 24.37680078 -64.27737925 25.42456455 -61.11083984 28.2746582 C-60.61583984 31.2446582 -60.61583984 31.2446582 -60.11083984 34.2746582 C-50.87083984 34.2746582 -41.63083984 34.2746582 -32.11083984 34.2746582 C-32.11083984 29.6546582 -32.11083984 25.0346582 -32.11083984 20.2746582 C-29.81926769 12.25415565 -24.3141105 6.32649795 -17.11083984 2.2746582 C-11.46315015 -0.19073156 -6.04968732 -0.01439461 0 0 Z M-19.35302734 12.17700195 C-19.89185547 12.84860352 -20.43068359 13.52020508 -20.98583984 14.2121582 C-21.54013672 14.88118164 -22.09443359 15.55020508 -22.66552734 16.23950195 C-26.15112525 21.14760062 -26.50075706 25.11820319 -26.73583984 31.0246582 C-26.77451172 31.81743164 -26.81318359 32.61020508 -26.85302734 33.42700195 C-26.94694785 35.37585237 -27.02996807 37.32522271 -27.11083984 39.2746582 C-28.29354965 39.26942139 -29.47625946 39.26418457 -30.69480896 39.25878906 C-41.86177691 39.21456919 -53.02807042 39.21250731 -64.19506741 39.25131226 C-69.93573606 39.26991702 -75.67562289 39.27386756 -81.41625977 39.24389648 C-86.96045379 39.21549733 -92.50334443 39.22615597 -98.047472 39.26345825 C-100.15846555 39.27088275 -102.26955669 39.26442991 -104.38046074 39.24362183 C-117.37654665 38.65747333 -117.37654665 38.65747333 -128.79077148 43.8371582 C-134.62372164 50.6296958 -135.57514345 57.05889333 -135.29833984 65.7746582 C-135.28480469 66.59708008 -135.27126953 67.41950195 -135.25732422 68.2668457 C-135.22239001 70.26974042 -135.16860041 72.27229177 -135.11083984 74.2746582 C-117.26557197 74.33031384 -99.42076318 74.34491636 -81.57545471 74.30253601 C-79.95997117 74.29875272 -78.34448757 74.29499399 -76.72900391 74.29125977 C-75.53042834 74.28846748 -75.53042834 74.28846748 -74.30763912 74.28561878 C-68.82239038 74.2743024 -63.33729574 74.27830696 -57.85205078 74.28930664 C-51.27760522 74.30198195 -44.70377731 74.28891071 -38.12946033 74.24458599 C-34.69895344 74.22212479 -31.26938642 74.21139298 -27.83883667 74.23025513 C-24.01839686 74.24498935 -20.20058603 74.216193 -16.38037109 74.17700195 C-15.2645163 74.19125214 -14.1486615 74.20550232 -12.99899292 74.22018433 C-6.02953602 74.09004045 -2.21889946 72.69654327 2.97906494 67.99810791 C5.83347116 65.42262082 9.02033861 63.77229278 12.45166016 62.0871582 C13.12422852 61.75256592 13.79679688 61.41797363 14.48974609 61.07324219 C21.6847475 57.65169713 29.12391716 55.88786009 36.88916016 54.2746582 C37.83178711 54.01313965 37.83178711 54.01313965 38.79345703 53.74633789 C59.48242938 49.089873 83.58000548 56.02518144 101.13916016 66.9621582 C105.64426601 69.93143252 105.64426601 69.93143252 107.00854492 71.84350586 C110.04590727 74.15494531 113.47736639 73.7572281 117.15087891 73.78637695 C118.4505938 73.81337173 118.4505938 73.81337173 119.77656555 73.84091187 C122.70988512 73.89668759 125.64299471 73.92981798 128.57666016 73.9621582 C130.65284174 73.99532873 132.72901351 74.02911856 134.80517578 74.06347656 C166.16130788 74.53104278 197.53064181 74.36220192 228.88916016 74.2746582 C228.97090812 71.44072894 229.03001001 68.60921001 229.07666016 65.7746582 C229.10179687 64.98317383 229.12693359 64.19168945 229.15283203 63.3762207 C229.23302244 56.85406743 228.32320575 51.13564325 223.95166016 45.99731445 C223.27103516 45.44946289 222.59041016 44.90161133 221.88916016 44.3371582 C221.20853516 43.77125977 220.52791016 43.20536133 219.82666016 42.62231445 C215.53248955 39.63544175 210.93423954 40.10257905 205.91967773 40.06933594 C205.00240402 40.05943634 204.08513031 40.04953674 203.14006042 40.03933716 C200.10463045 40.00772041 197.06918481 39.98296397 194.03369141 39.95825195 C191.9304717 39.93768258 189.82725614 39.91668612 187.7240448 39.89527893 C182.18550972 39.84005654 176.64693732 39.79064795 171.1083374 39.74243164 C165.45777053 39.69221788 159.80725793 39.63653115 154.15673828 39.58129883 C143.06759192 39.47371518 131.97839846 39.37227062 120.88916016 39.2746582 C120.84162598 38.10185303 120.7940918 36.92904785 120.74511719 35.72070312 C120.67122979 34.16965412 120.59682083 32.61862989 120.52197266 31.06762695 C120.49208252 30.29608276 120.46219238 29.52453857 120.43139648 28.72961426 C120.01589892 20.56618062 117.26615931 16.30405205 111.32666016 10.8371582 C107.52272709 7.61303941 104.07411628 7.15201606 99.17205811 7.13421631 C98.22732132 7.12850616 97.28258453 7.12279602 96.30921936 7.11691284 C95.27953537 7.11579498 94.24985138 7.11467712 93.18896484 7.11352539 C92.09907761 7.10856049 91.00919037 7.10359558 89.88627625 7.09848022 C86.27785614 7.08386617 82.66948001 7.07705761 79.06103516 7.0715332 C76.55242919 7.06578087 74.04382323 7.06002315 71.53521729 7.05426025 C66.94533191 7.04509511 62.35545912 7.03879411 57.76556563 7.0357635 C51.024137 7.03128705 44.28291155 7.01375541 37.54154468 6.98476291 C31.69068624 6.96047957 25.83989519 6.95281615 19.98899078 6.95108795 C17.50594222 6.94806435 15.02289446 6.94004572 12.53987885 6.92690277 C9.0620748 6.90980924 5.58476284 6.91173099 2.10693359 6.91821289 C1.08534653 6.90899811 0.06375946 6.89978333 -0.98878479 6.89028931 C-7.85694642 6.93029893 -13.91061372 7.55948377 -19.35302734 12.17700195 Z " fill="#383838" transform="translate(239.11083984375,103.725341796875)"/>
<path d="M0 0 C1.10968643 -0.00511093 2.21937286 -0.01022186 3.36268616 -0.01548767 C7.02521176 -0.02936968 10.68754889 -0.02842785 14.35009766 -0.02612305 C16.90068634 -0.03001084 19.45127437 -0.03434568 22.00186157 -0.03910828 C27.34647996 -0.04656759 32.69102941 -0.04642003 38.03564453 -0.04101562 C44.19890366 -0.03497888 50.36193432 -0.04728294 56.52515447 -0.06858569 C62.47106232 -0.08837586 68.41689986 -0.09136945 74.36284256 -0.08785057 C76.88496054 -0.08836331 79.40708221 -0.0935921 81.92918015 -0.10366249 C85.45947506 -0.11602822 88.98924445 -0.10923368 92.51953125 -0.09765625 C94.07525093 -0.10912186 94.07525093 -0.10912186 95.66239929 -0.12081909 C106.5159027 -0.04233098 114.1763892 3.53463364 121.88916016 11.2746582 C125.74085922 16.41025696 126.05602721 21.27419782 125.97509766 27.5793457 C125.96269043 28.83473145 125.9502832 30.09011719 125.9375 31.38354492 C125.92154785 32.3376123 125.9055957 33.29167969 125.88916016 34.2746582 C126.95689667 34.26355515 128.02463318 34.25245209 129.12472534 34.24101257 C139.21679043 34.1393887 149.30875088 34.06457419 159.40121269 34.01559734 C164.58914491 33.98957068 169.77666207 33.95429975 174.96435547 33.89746094 C179.97646251 33.84289337 184.98817183 33.8131856 190.00055313 33.80027199 C191.90703715 33.79107638 193.81350089 33.77311975 195.7198143 33.74600792 C207.5669806 33.58430928 216.49177724 33.69396247 225.82666016 41.8371582 C226.50728516 42.6415332 227.18791016 43.4459082 227.88916016 44.2746582 C228.75541016 45.2955957 228.75541016 45.2955957 229.63916016 46.3371582 C232.41658532 50.6421672 232.03507044 55.32017173 232.02197266 60.2902832 C232.02329193 61.08678284 232.02461121 61.88328247 232.02597046 62.70391846 C232.02789183 65.3108708 232.02153448 67.91771669 232.01416016 70.5246582 C232.01327393 71.41016357 232.0123877 72.29566895 232.01147461 73.20800781 C231.99148819 90.24412338 231.5677237 107.25281961 230.88916016 124.2746582 C230.55916016 124.2746582 230.22916016 124.2746582 229.88916016 124.2746582 C228.98383569 108.90030871 228.88916016 93.70965078 228.88916016 78.2746582 C191.92916016 78.2746582 154.96916016 78.2746582 116.88916016 78.2746582 C119.85916016 81.9046582 122.82916016 85.5346582 125.88916016 89.2746582 C138.79535609 107.9886423 142.13393783 126.10867977 141.88916016 148.2746582 C141.55916016 148.2746582 141.22916016 148.2746582 140.88916016 148.2746582 C140.82970215 147.69723877 140.77024414 147.11981934 140.70898438 146.52490234 C138.22782993 123.45656305 132.18378301 102.64257956 115.88916016 85.2746582 C114.99583984 84.57856445 114.10251953 83.8824707 113.18212891 83.1652832 C110.88916016 81.2746582 110.88916016 81.2746582 110.38916016 78.6496582 C110.88916016 76.2746582 110.88916016 76.2746582 113.88916016 74.2746582 C116.05430126 74.02856255 116.05430126 74.02856255 118.61576843 74.03414917 C119.58752014 74.03139984 120.55927185 74.02865051 121.56047058 74.02581787 C122.62501968 74.03300842 123.68956879 74.04019897 124.78637695 74.04760742 C125.90847565 74.04731537 127.03057434 74.04702332 128.18667603 74.04672241 C131.90398837 74.04811827 135.62110148 74.06369172 139.33837891 74.0793457 C141.91241852 74.08307492 144.48645956 74.08592232 147.0605011 74.08792114 C153.14844384 74.09478309 159.23630408 74.11055382 165.32421571 74.13062012 C172.25521947 74.15296975 179.18622665 74.16397019 186.11725748 74.17401099 C200.37459692 74.19491982 214.63187599 74.23010165 228.88916016 74.2746582 C228.80133374 71.43998478 228.69435114 68.60812404 228.57666016 65.7746582 C228.55410156 64.98317383 228.53154297 64.19168945 228.50830078 63.3762207 C228.22683616 57.13282356 227.30633812 51.16977818 223.17041016 46.21606445 C222.58259766 45.76102539 221.99478516 45.30598633 221.38916016 44.8371582 C220.80134766 44.36407227 220.21353516 43.89098633 219.60791016 43.40356445 C215.38074666 40.62708661 210.79046294 41.10864692 205.93554688 41.08520508 C205.01987946 41.07691177 204.10421204 41.06861847 203.16079712 41.06007385 C201.17192184 41.04267229 199.18302605 41.02750576 197.1941185 41.01429749 C194.05148679 40.99329216 190.90895867 40.96626947 187.76638794 40.93762207 C179.96357353 40.86774525 172.16068582 40.80829584 164.35778809 40.74859619 C157.76259054 40.69775816 151.16744949 40.64297142 144.57233047 40.58277893 C141.46733504 40.55610994 138.3623346 40.53535519 135.2572937 40.51477051 C133.36618801 40.49817612 131.47508471 40.48130505 129.58398438 40.46411133 C128.71332336 40.45992691 127.84266235 40.45574249 126.94561768 40.45143127 C121.00300808 40.38850613 121.00300808 40.38850613 119.88916016 39.2746582 C119.81323393 37.36595731 119.74239803 35.45687937 119.70092773 33.54711914 C119.46989035 24.81335801 118.67653907 19.12341377 112.36572266 12.73168945 C108.11430153 8.87951346 104.73335321 8.1544098 99.17205811 8.13421631 C98.22732132 8.12850616 97.28258453 8.12279602 96.30921936 8.11691284 C95.27953537 8.11579498 94.24985138 8.11467712 93.18896484 8.11352539 C92.09907761 8.10856049 91.00919037 8.10359558 89.88627625 8.09848022 C86.27785614 8.08386617 82.66948001 8.07705761 79.06103516 8.0715332 C76.55242919 8.06578087 74.04382323 8.06002315 71.53521729 8.05426025 C66.94533191 8.04509511 62.35545912 8.03879411 57.76556563 8.0357635 C51.024137 8.03128705 44.28291155 8.01375541 37.54154468 7.98476291 C31.69068624 7.96047957 25.83989519 7.95281615 19.98899078 7.95108795 C17.50594222 7.94806435 15.02289446 7.94004572 12.53987885 7.92690277 C9.0620748 7.90980924 5.58476284 7.91173099 2.10693359 7.91821289 C1.08534653 7.90899811 0.06375946 7.89978333 -0.98878479 7.89028931 C-7.67296138 7.92922715 -13.8633488 8.45974801 -19.13427734 13.02856445 C-19.58029297 13.62540039 -20.02630859 14.22223633 -20.48583984 14.8371582 C-20.94732422 15.43657227 -21.40880859 16.03598633 -21.88427734 16.65356445 C-22.49142578 17.45600586 -22.49142578 17.45600586 -23.11083984 18.2746582 C-23.77083984 18.9346582 -24.43083984 19.5946582 -25.11083984 20.2746582 C-29.11083984 20.2746582 -29.11083984 20.2746582 -31.11083984 19.2746582 C-30.17329854 12.27353807 -25.44999879 8.08869983 -20.04833984 3.8996582 C-13.33856945 0.18787033 -7.50375127 -0.01785441 0 0 Z " fill="#3A3A3A" transform="translate(239.11083984375,103.725341796875)"/>
<path d="M0 0 C0.8142613 2.8121517 1.08776961 5.15587063 0.9140625 8.07421875 C0.87023437 8.82380859 0.82640625 9.57339844 0.78125 10.34570312 C0.70390625 11.50489258 0.70390625 11.50489258 0.625 12.6875 C0.58117187 13.47189453 0.53734375 14.25628906 0.4921875 15.06445312 C0.13096918 20.86903082 0.13096918 20.86903082 -1 22 C-2.92618197 22.10224101 -4.85626373 22.13084295 -6.78515625 22.1328125 C-8.07510498 22.13474609 -9.36505371 22.13667969 -10.6940918 22.13867188 C-12.1502291 22.13452918 -13.60636524 22.12995739 -15.0625 22.125 C-15.79844391 22.12411377 -16.53438782 22.12322754 -17.29263306 22.12231445 C-42.19743025 22.08795344 -67.1011871 21.5000141 -92 21 C-92 18 -92 18 -91 17 C-88.98035801 16.92755947 -86.95832876 16.91622812 -84.9375 16.9375 C-83.28041016 16.95103516 -83.28041016 16.95103516 -81.58984375 16.96484375 C-80.73519531 16.97644531 -79.88054687 16.98804688 -79 17 C-79.12375 16.29875 -79.2475 15.5975 -79.375 14.875 C-78.93189201 11.47783873 -77.87274078 9.52503836 -75.3359375 7.20410156 C-70.40350145 4.6615875 -64.63415833 5.2027048 -59.20507812 5.32763672 C-57.00502059 5.37489216 -54.8098125 5.36874217 -52.609375 5.35546875 C-40.05903621 5.45465346 -40.05903621 5.45465346 -35 10 C-34.505 12.97 -34.505 12.97 -34 16 C-24.76 16 -15.52 16 -6 16 C-6 11.38 -6 6.76 -6 2 C-4.02 1.34 -2.04 0.68 0 0 Z " fill="#363636" transform="translate(213,122)"/>
<path d="M0 0 C0.9311412 -0.00630432 1.86228241 -0.01260864 2.82164001 -0.019104 C4.33414085 -0.01303131 4.33414085 -0.01303131 5.87719727 -0.00683594 C6.91046646 -0.00874939 7.94373566 -0.01066284 9.00831604 -0.01263428 C11.19646447 -0.01399702 13.38462095 -0.01029437 15.57275391 -0.00195312 C18.92637279 0.00873415 22.27945463 -0.00183997 25.63305664 -0.01464844 C27.7561047 -0.01332665 29.87915243 -0.01076385 32.00219727 -0.00683594 C33.00850693 -0.0108844 34.01481659 -0.01493286 35.05162048 -0.019104 C35.98591385 -0.01279968 36.92020721 -0.00649536 37.8828125 0 C39.11619606 0.00238678 39.11619606 0.00238678 40.37449646 0.00482178 C42.50610352 0.25878906 42.50610352 0.25878906 45.50610352 2.25878906 C45.93969727 5.41113281 45.93969727 5.41113281 45.94360352 9.19628906 C45.96293945 10.4428125 45.98227539 11.68933594 46.00219727 12.97363281 C45.50610352 16.25878906 45.50610352 16.25878906 43.76541138 17.93984985 C41.20982153 19.43175262 39.79663539 19.6382393 36.86108398 19.64697266 C35.48978836 19.66115738 35.48978836 19.66115738 34.09078979 19.67562866 C33.1115152 19.66955597 32.1322406 19.66348328 31.12329102 19.65722656 C29.60736862 19.66153183 29.60736862 19.66153183 28.06082153 19.66592407 C25.92750487 19.66796359 23.79416946 19.6624416 21.66088867 19.64990234 C18.3862154 19.63381418 15.1127702 19.6497724 11.83813477 19.66894531 C9.76651745 19.66696352 7.6949009 19.66312116 5.62329102 19.65722656 C4.63996796 19.66329926 3.6566449 19.66937195 2.64352417 19.67562866 C1.73563141 19.66617218 0.82773865 19.6567157 -0.10766602 19.64697266 C-0.90834503 19.64458588 -1.70902405 19.6421991 -2.53396606 19.63973999 C-3.1807431 19.51402618 -3.82752014 19.38831238 -4.49389648 19.25878906 C-6.95452627 15.56784438 -6.76206425 13.58834712 -6.74389648 9.19628906 C-6.74905273 7.9471875 -6.75420898 6.69808594 -6.75952148 5.41113281 C-6.34021848 0.43499274 -4.53959502 0.0087933 0 0 Z " fill="#3C3C3C" transform="translate(405.493896484375,151.7412109375)"/>
<path d="M0 0 C1.4926621 1.14934982 2.97338265 2.314502 4.4375 3.5 C5.0459375 3.93570313 5.654375 4.37140625 6.28125 4.8203125 C14.43357094 11.00866522 22.65972133 23.02391088 25.02734375 32.98046875 C25.62566497 38.11463468 25.54133437 43.21138305 25.5 48.375 C25.49548828 49.44492188 25.49097656 50.51484375 25.48632812 51.6171875 C25.47459749 54.24484986 25.45818228 56.87239538 25.4375 59.5 C25.1075 59.5 24.7775 59.5 24.4375 59.5 C24.41171875 58.73558594 24.3859375 57.97117187 24.359375 57.18359375 C23.67163361 44.1946598 20.96340972 32.92176855 13.92578125 21.890625 C12.4375 19.5 12.4375 19.5 11.4375 16.5 C9.9525 16.005 9.9525 16.005 8.4375 15.5 C6.77083333 13.83333333 5.10416667 12.16666667 3.4375 10.5 C-9.96923471 -1.13545769 -24.92410411 -3.43498741 -42.06298828 -2.6953125 C-51.97890383 -1.92048026 -63.638307 2.56699807 -70.74609375 9.6875 C-72.5625 11.5 -72.5625 11.5 -74.5625 11.5 C-74.9028125 12.304375 -74.9028125 12.304375 -75.25 13.125 C-76.5625 15.5 -76.5625 15.5 -78.875 18.1875 C-88.05650184 29.04327571 -90.84829306 42.71867839 -92.5625 56.5 C-92.8925 56.5 -93.2225 56.5 -93.5625 56.5 C-94.38056316 39.0025379 -90.99412136 23.83553411 -79.25 10.25 C-58.24199105 -11.8784361 -25.82259712 -17.33086115 0 0 Z " fill="#404040" transform="translate(325.5625,195.5)"/>
<path d="M0 0 C14.52 0 29.04 0 44 0 C44 3.63 44 7.26 44 11 C29.48 11 14.96 11 0 11 C0 7.37 0 3.74 0 0 Z " fill="#EFEFEF" transform="translate(403,156)"/>
<path d="M0 0 C1.04056801 -0.00006042 1.04056801 -0.00006042 2.10215759 -0.00012207 C3.56209421 0.00521782 5.02203157 0.02273556 6.48168945 0.05175781 C8.71199585 0.09369645 10.93928669 0.09281687 13.16992188 0.0859375 C23.90422225 0.16510224 23.90422225 0.16510224 27.10327148 1.99804688 C28.65234375 3.59375 28.65234375 3.59375 28.65234375 5.59375 C27.66234375 5.59375 26.67234375 5.59375 25.65234375 5.59375 C26.14734375 8.06875 26.14734375 8.06875 26.65234375 10.59375 C15.10234375 10.59375 3.55234375 10.59375 -8.34765625 10.59375 C-8.34765625 9.60375 -8.34765625 8.61375 -8.34765625 7.59375 C-8.80140625 8.08875 -9.25515625 8.58375 -9.72265625 9.09375 C-11.34765625 10.59375 -11.34765625 10.59375 -13.34765625 10.59375 C-13.05741806 7.20763781 -12.39396109 5.65216749 -10.25610352 2.95507812 C-6.58820634 -0.02283688 -4.67870442 -0.02573448 0 0 Z " fill="#3F3F3F" transform="translate(147.34765625,127.40625)"/>
<path d="M0 0 C3.63599051 0.50734751 5.07033831 1.82494502 7.6875 4.375 C12.3080394 10.5357192 12.84020131 14.8435784 12.8203125 22.390625 C12.82229141 23.58537445 12.82229141 23.58537445 12.8243103 24.80426025 C12.82623167 27.4112126 12.81987432 30.01805849 12.8125 32.625 C12.81117065 33.95325806 12.81117065 33.95325806 12.80981445 35.30834961 C12.78982803 52.34446518 12.36606354 69.35316141 11.6875 86.375 C11.3575 86.375 11.0275 86.375 10.6875 86.375 C9.78217553 71.00065051 9.6875 55.80999258 9.6875 40.375 C-11.4325 40.375 -32.5525 40.375 -54.3125 40.375 C-54.3125 40.045 -54.3125 39.715 -54.3125 39.375 C-33.1925 39.375 -12.0725 39.375 9.6875 39.375 C9.6875 38.715 9.6875 38.055 9.6875 37.375 C4.4075 37.375 -0.8725 37.375 -6.3125 37.375 C-6.3125 37.045 -6.3125 36.715 -6.3125 36.375 C-1.0325 36.375 4.2475 36.375 9.6875 36.375 C9.59967358 33.54032658 9.49269098 30.70846584 9.375 27.875 C9.34116211 26.68777344 9.34116211 26.68777344 9.30664062 25.4765625 C9.02375081 19.20155215 8.17864786 13.30776043 3.96875 8.3515625 C3.08703125 7.68253906 3.08703125 7.68253906 2.1875 7 C1.30578125 6.30777344 1.30578125 6.30777344 0.40625 5.6015625 C-1.14477007 4.49469817 -2.727054 3.431964 -4.3125 2.375 C-2.3125 0.375 -2.3125 0.375 0 0 Z " fill="#454545" transform="translate(458.3125,141.625)"/>
<path d="M0 0 C0 0.33 0 0.66 0 1 C-0.85464844 1.04898438 -1.70929688 1.09796875 -2.58984375 1.1484375 C-3.69457031 1.22320312 -4.79929688 1.29796875 -5.9375 1.375 C-7.03964844 1.44460937 -8.14179687 1.51421875 -9.27734375 1.5859375 C-10.62505859 1.79089844 -10.62505859 1.79089844 -12 2 C-12.33 2.66 -12.66 3.32 -13 4 C5.48 4.33 23.96 4.66 43 5 C43 5.33 43 5.66 43 6 C42.25355225 5.9969838 41.50710449 5.99396759 40.73803711 5.99085999 C33.67637352 5.96854226 26.61573625 5.9799381 19.55426025 6.02846622 C15.92439423 6.05224222 12.29544296 6.06333632 8.66552734 6.04467773 C5.15711332 6.02712314 1.65033599 6.04388741 -1.85787964 6.08367729 C-3.83630052 6.09738806 -5.81486473 6.07626957 -7.79321289 6.05445862 C-15.04956768 6.17033112 -19.35322363 6.88235594 -24.5554657 12.12510681 C-29.04603618 17.95351809 -29.48408703 24.36311066 -29.6875 31.5 C-29.72166016 32.32242188 -29.75582031 33.14484375 -29.79101562 33.9921875 C-29.8724988 35.9943455 -29.93794575 37.99714568 -30 40 C-31.88680615 38.41218054 -32.89759651 37.49617741 -33.40405273 35.04223633 C-33.43627806 32.63119629 -33.45773183 30.22376662 -33.4375 27.8125 C-33.45748047 26.98685547 -33.47746094 26.16121094 -33.49804688 25.31054688 C-33.4922109 17.90469267 -31.41367236 12.71538141 -26.5 7.1875 C-25.2625 6.1046875 -25.2625 6.1046875 -24 5 C-23.38125 4.443125 -22.7625 3.88625 -22.125 3.3125 C-15.2537554 -0.93150402 -7.80736233 -0.2113271 0 0 Z " fill="#383838" transform="translate(134,138)"/>
<path d="M0 0 C2.97 0.495 2.97 0.495 6 1 C5.175 1.928125 4.35 2.85625 3.5 3.8125 C-6.42472214 15.50782984 -15.17964348 28.95011066 -19 44 C-19.19078125 44.6909375 -19.3815625 45.381875 -19.578125 46.09375 C-21.68165679 54.8684826 -21.64973263 64.02209431 -22 73 C-22.33 73 -22.66 73 -23 73 C-23.83385771 43.56803004 -23.83385771 43.56803004 -19 31 C-18.53207031 29.75863281 -18.53207031 29.75863281 -18.0546875 28.4921875 C-17.13130231 26.26519968 -16.10266178 24.14341974 -15 22 C-14.58105469 21.14148438 -14.16210938 20.28296875 -13.73046875 19.3984375 C-10.02697202 12.15468356 -5.33003607 6.12361921 0 0 Z " fill="#464646" transform="translate(226,184)"/>
<path d="M0 0 C0.99 0.495 0.99 0.495 2 1 C-0.64 2.65 -3.28 4.3 -6 6 C-5.01 7.485 -5.01 7.485 -4 9 C-4.58265625 9.1959375 -5.1653125 9.391875 -5.765625 9.59375 C-13.27548243 12.33319485 -19.49692681 16.39644991 -26 21 C-26.495 19.515 -26.495 19.515 -27 18 C-27.86613922 18.16455185 -28.73227844 18.3291037 -29.62466431 18.49864197 C-32.83759972 18.97587775 -35.76303583 19.08544253 -39.00537109 19.02172852 C-40.16612152 19.00163223 -41.32687195 18.98153595 -42.52279663 18.96083069 C-44.37936386 18.92027809 -44.37936386 18.92027809 -46.2734375 18.87890625 C-47.55231842 18.85529526 -48.83119934 18.83168427 -50.14883423 18.80735779 C-53.53218809 18.74390585 -56.91537608 18.67567767 -60.29858398 18.60510254 C-63.75757288 18.53413328 -67.21667948 18.46948804 -70.67578125 18.40429688 C-77.45064386 18.2753375 -84.22535862 18.14007627 -91 18 C-91 17.67 -91 17.34 -91 17 C-89.84607506 17.00452431 -89.84607506 17.00452431 -88.6688385 17.00914001 C-81.38670487 17.0314693 -74.10574834 17.02003659 -66.82376957 16.97153378 C-63.08071985 16.94777042 -59.33855664 16.93665089 -55.59545898 16.95532227 C-51.97683416 16.97289261 -48.35979446 16.95608069 -44.74136162 16.91632271 C-43.36724003 16.90709306 -41.9929793 16.90984903 -40.61891365 16.92530632 C-32.38790162 17.00883868 -27.00795365 16.49787878 -20.87068176 10.73374939 C-17.86165711 7.94498288 -14.30574759 6.3633263 -10.625 4.625 C-9.92761719 4.28339844 -9.23023438 3.94179687 -8.51171875 3.58984375 C-5.70569796 2.22722713 -2.96202979 0.98734326 0 0 Z " fill="#3D3D3D" transform="translate(263,160)"/>
<path d="M0 0 C1.5778125 0.01353516 1.5778125 0.01353516 3.1875 0.02734375 C5.75024878 0.05064147 8.31249512 0.08334888 10.875 0.125 C10.875 0.455 10.875 0.785 10.875 1.125 C0.48 1.62 0.48 1.62 -10.125 2.125 C-10.125 2.785 -10.125 3.445 -10.125 4.125 C-4.185 4.455 1.755 4.785 7.875 5.125 C7.875 5.455 7.875 5.785 7.875 6.125 C6.57949219 6.13917969 5.28398437 6.15335938 3.94921875 6.16796875 C-6.52377541 6.40795214 -16.03902101 7.4012422 -26.08129883 10.48510742 C-29.87299106 11.63690383 -32.33283803 12.33037891 -36.125 11.125 C-36.125 10.465 -36.125 9.805 -36.125 9.125 C-34.0074361 7.98383444 -31.88251866 6.86261843 -29.75 5.75 C-29.16605469 5.43289062 -28.58210938 5.11578125 -27.98046875 4.7890625 C-19.02093119 0.16478505 -9.91744351 -0.16402896 0 0 Z " fill="#3B3B3B" transform="translate(292.125,155.875)"/>
<path d="M0 0 C9.83742091 8.86874708 16.03389303 27.44810663 16.953125 40.49609375 C17.06861454 46.66516017 17.0681306 52.83039532 17 59 C16.67 59 16.34 59 16 59 C15.94054199 58.42258057 15.88108398 57.84516113 15.81982422 57.25024414 C13.89047615 39.31228144 10.33380435 24.26284832 0.44140625 9.05078125 C-1.2463125 5.47867191 -1.03952686 3.74791575 0 0 Z " fill="#555555" transform="translate(364,193)"/>
<path d="M0 0 C1.29292969 -0.01224609 2.58585937 -0.02449219 3.91796875 -0.03710938 C5.15933594 -0.03904297 6.40070313 -0.04097656 7.6796875 -0.04296875 C8.81905762 -0.04707764 9.95842773 -0.05118652 11.13232422 -0.05541992 C14.02923385 0.17972652 15.67887104 0.67801932 18.125 2.1875 C18.125 3.1775 18.125 4.1675 18.125 5.1875 C6.575 5.1875 -4.975 5.1875 -16.875 5.1875 C-16.545 3.8675 -16.215 2.5475 -15.875 1.1875 C-11.32650564 -1.08674718 -4.99383178 0.00247464 0 0 Z " fill="#F4F4F4" transform="translate(155.875,132.8125)"/>
<path d="M0 0 C7.86469162 7.17074824 14.77983644 17.26973813 16 28 C16.11402802 31.95944889 16.09420468 35.91435322 16.0625 39.875 C16.05798828 40.94492188 16.05347656 42.01484375 16.04882812 43.1171875 C16.03709749 45.74484986 16.02068228 48.37239538 16 51 C15.67 51 15.34 51 15 51 C14.97421875 50.23558594 14.9484375 49.47117188 14.921875 48.68359375 C14.23413361 35.6946598 11.52590972 24.42176855 4.48828125 13.390625 C3 11 3 11 2 8 C1.01 7.67 0.02 7.34 -1 7 C-1.8125 5.125 -1.8125 5.125 -2 3 C-1.34 2.01 -0.68 1.02 0 0 Z " fill="#434343" transform="translate(335,204)"/>
<path d="M0 0 C13.75330696 -1.35384115 24.6806145 2.63882931 35.625 10.9375 C39.75694188 14.52868438 43.04981789 18.39845809 46 23 C46.58394531 23.8971875 46.58394531 23.8971875 47.1796875 24.8125 C49.79871676 29.09470842 52.6037206 34.08459713 51.54296875 39.20703125 C51.36378906 39.79871094 51.18460937 40.39039063 51 41 C50.67128906 40.11699219 50.34257812 39.23398438 50.00390625 38.32421875 C45.32938921 26.53024758 38.95517094 16.87462103 28 10 C27.22527344 9.47664062 26.45054687 8.95328125 25.65234375 8.4140625 C17.58361343 3.42434994 9.24192312 2.23514565 0 1 C0 0.67 0 0.34 0 0 Z " fill="#4D4D4D" transform="translate(286,202)"/>
<path d="M0 0 C0.78955078 -0.01224609 1.57910156 -0.02449219 2.39257812 -0.03710938 C4.45057435 -0.04237279 6.50812009 0.06543715 8.5625 0.1875 C9.2225 0.8475 9.8825 1.5075 10.5625 2.1875 C10.00694444 6.74305556 10.00694444 6.74305556 8.5625 8.1875 C5.71914952 8.28736975 2.90552837 8.32627881 0.0625 8.3125 C-0.73542969 8.31636719 -1.53335938 8.32023438 -2.35546875 8.32421875 C-8.31089233 8.31410767 -8.31089233 8.31410767 -9.4375 7.1875 C-9.5625 4.1875 -9.5625 4.1875 -9.4375 1.1875 C-7.33618615 -0.91381385 -2.89603678 0.00235259 0 0 Z " fill="#3A3A3A" transform="translate(226.4375,163.8125)"/>
<path d="M0 0 C0.99 0 1.98 0 3 0 C3 0.66 3 1.32 3 2 C3.66 2.33 4.32 2.66 5 3 C4.32904297 3.70962891 4.32904297 3.70962891 3.64453125 4.43359375 C-7.3239073 16.43105426 -11.01897598 30.07360952 -13 46 C-13.33 46 -13.66 46 -14 46 C-14.78304826 29.2514678 -11.42799986 15.82365694 -1.8125 1.8125 C-1.214375 1.214375 -0.61625 0.61625 0 0 Z " fill="#414141" transform="translate(246,206)"/>
<path d="M0 0 C6.63855742 -0.05064489 13.27706514 -0.08571023 19.91577148 -0.10986328 C22.17490501 -0.11993058 24.43402547 -0.13358538 26.69311523 -0.15087891 C29.93736999 -0.17509508 33.18145271 -0.18647575 36.42578125 -0.1953125 C37.43836502 -0.20563507 38.45094879 -0.21595764 39.49421692 -0.22659302 C40.43496567 -0.22674408 41.37571442 -0.22689514 42.3449707 -0.22705078 C43.17325882 -0.231492 44.00154694 -0.23593323 44.85493469 -0.24050903 C47 0 47 0 50 2 C50.29296875 5.2578125 50.29296875 5.2578125 50.1875 9.125 C50.14689453 11.04699219 50.14689453 11.04699219 50.10546875 13.0078125 C50.07066406 13.99523437 50.03585937 14.98265625 50 16 C49.67 16 49.34 16 49 16 C48.505 12.535 48.505 12.535 48 9 C47.34 10.32 46.68 11.64 46 13 C46 10.03 46 7.06 46 4 C31.48 4 16.96 4 2 4 C2 3.67 2 3.34 2 3 C16.19 3 30.38 3 45 3 C45 2.34 45 1.68 45 1 C29.82 1.33 14.64 1.66 -1 2 C-0.67 1.34 -0.34 0.68 0 0 Z " fill="#424242" transform="translate(401,152)"/>
<path d="M0 0 C-1.49531505 3.9875068 -3.71554713 5.35837718 -7.3125 7.5 C-10.27880193 9.28059052 -12.96771927 10.97251057 -15.60546875 13.21875 C-18 15 -18 15 -22 15 C-21.49917411 10.85164971 -19.36296347 9.13230405 -16.3125 6.4375 C-15.46300781 5.67308594 -14.61351562 4.90867188 -13.73828125 4.12109375 C-9.19133412 0.59899347 -5.7273081 -1.85295262 0 0 Z " fill="#393939" transform="translate(269,193)"/>
<path d="M0 0 C3.89558088 -0.11643304 7.79071258 -0.18732909 11.6875 -0.25 C12.79029297 -0.28351563 13.89308594 -0.31703125 15.02929688 -0.3515625 C23.2682306 -0.45112665 23.2682306 -0.45112665 27.26953125 2.015625 C27.84058594 2.67046875 28.41164063 3.3253125 29 4 C24.90554813 6.04722594 19.54478943 4.92109954 15.0625 4.75 C13.39670898 4.70939453 13.39670898 4.70939453 11.69726562 4.66796875 C10.10108398 4.60802734 10.10108398 4.60802734 8.47265625 4.546875 C7.49562744 4.51432617 6.51859863 4.48177734 5.51196289 4.44824219 C2.66656526 3.9405009 1.72381374 3.27515792 0 1 C0 0.67 0 0.34 0 0 Z " fill="#313131" transform="translate(281,157)"/>
<path d="M0 0 C1.485 0.99 1.485 0.99 3 2 C3.24719197 4.64254435 3.3002365 7.04136785 3.21875 9.6796875 C3.20614136 10.4716452 3.19353271 11.26360291 3.18054199 12.07955933 C3.13478136 14.72019608 3.06733141 17.35983198 3 20 C2.96355159 21.86748825 2.92841751 23.73500257 2.89453125 25.60253906 C2.78343033 31.44389318 2.6431577 37.28435797 2.5 43.125 C2.45162886 45.16275582 2.40345072 47.20051623 2.35546875 49.23828125 C2.23919522 54.15890972 2.1203408 59.07946939 2 64 C1.67 64 1.34 64 1 64 C0.19357961 42.6555966 -0.13950428 21.35917806 0 0 Z " fill="#585858" transform="translate(101,180)"/>
<path d="M0 0 C4.75 0.75 4.75 0.75 7 3 C9.14052502 3.33034828 9.14052502 3.33034828 11.63330078 3.31884766 C12.59414581 3.33871735 13.55499084 3.35858704 14.54495239 3.37905884 C15.58457123 3.39061005 16.62419006 3.40216125 17.6953125 3.4140625 C18.75789276 3.43342865 19.82047302 3.4527948 20.91525269 3.4727478 C24.31841943 3.53266084 27.72161978 3.57897598 31.125 3.625 C33.4284004 3.66316897 35.73178636 3.70222005 38.03515625 3.7421875 C43.68997628 3.83837187 49.34488283 3.92338481 55 4 C55 4.33 55 4.66 55 5 C53.74340576 5.02505615 52.48681152 5.0501123 51.19213867 5.07592773 C46.53480643 5.17002295 41.87762259 5.27023859 37.22045898 5.37231445 C35.20389271 5.41565529 33.18728993 5.45733098 31.1706543 5.49731445 C28.27381383 5.55503747 25.37715694 5.61872622 22.48046875 5.68359375 C21.12564644 5.70866249 21.12564644 5.70866249 19.74345398 5.73423767 C18.90280899 5.75418289 18.062164 5.77412811 17.19604492 5.79467773 C16.45658127 5.81022202 15.71711761 5.8257663 14.95524597 5.84178162 C12.7848329 5.93912225 12.7848329 5.93912225 10 7 C8.79117904 9.00016466 8.79117904 9.00016466 8 11 C1.29540481 5.9059081 1.29540481 5.9059081 0.0625 2.125 C0.041875 1.42375 0.02125 0.7225 0 0 Z " fill="#494949" transform="translate(341,173)"/>
<path d="M0 0 C2.75 0.8125 2.75 0.8125 5 2 C0.375 6.875 0.375 6.875 -3 8 C-3 7.01 -3 6.02 -3 5 C-3.86613922 5.16455185 -4.73227844 5.3291037 -5.62466431 5.49864197 C-8.83759972 5.97587775 -11.76303583 6.08544253 -15.00537109 6.02172852 C-16.16612152 6.00163223 -17.32687195 5.98153595 -18.52279663 5.96083069 C-19.76050812 5.93379562 -20.9982196 5.90676056 -22.2734375 5.87890625 C-23.55231842 5.85529526 -24.83119934 5.83168427 -26.14883423 5.80735779 C-29.53218809 5.74390585 -32.91537608 5.67567767 -36.29858398 5.60510254 C-39.75757288 5.53413328 -43.21667948 5.46948804 -46.67578125 5.40429688 C-53.45064386 5.2753375 -60.22535862 5.14007627 -67 5 C-67 4.67 -67 4.34 -67 4 C-65.82942047 3.99120064 -65.82942047 3.99120064 -64.63519287 3.98222351 C-57.27815101 3.92430221 -49.92144805 3.85222928 -42.56470871 3.76428509 C-38.78258142 3.71957115 -35.00056209 3.68031758 -31.21826172 3.65356445 C-27.56760884 3.62754121 -23.91737122 3.58714656 -20.2669754 3.53681374 C-18.87479063 3.52013823 -17.48253402 3.50862817 -16.09026337 3.50238609 C-14.13916134 3.49275341 -12.18819016 3.46299634 -10.23730469 3.43237305 C-8.57184601 3.41571846 -8.57184601 3.41571846 -6.8727417 3.39872742 C-3.67404158 2.95475801 -2.46993693 1.97118259 0 0 Z " fill="#535353" transform="translate(239,173)"/>
<path d="M0 0 C0 0.33 0 0.66 0 1 C-0.85464844 1.04898438 -1.70929688 1.09796875 -2.58984375 1.1484375 C-3.69457031 1.22320312 -4.79929688 1.29796875 -5.9375 1.375 C-7.03964844 1.44460937 -8.14179687 1.51421875 -9.27734375 1.5859375 C-10.17582031 1.72257813 -11.07429688 1.85921875 -12 2 C-12.33 2.66 -12.66 3.32 -13 4 C5.48 4.33 23.96 4.66 43 5 C43 5.33 43 5.66 43 6 C41.86034286 6.0154612 41.86034286 6.0154612 40.69766235 6.03123474 C33.54616045 6.12911217 26.394747 6.23161256 19.24338722 6.33933926 C15.56658571 6.39456189 11.88977624 6.44798081 8.21289062 6.49731445 C4.66614134 6.54496779 1.11948974 6.59731091 -2.4271431 6.65294075 C-3.7819336 6.67335992 -5.13675088 6.69207374 -6.49158859 6.70907402 C-8.38556789 6.73312739 -10.27946043 6.76374383 -12.17333984 6.79467773 C-13.79216568 6.81799416 -13.79216568 6.81799416 -15.44369507 6.84178162 C-17.99016557 6.83212193 -17.99016557 6.83212193 -20 8 C-19.67 7.01 -19.34 6.02 -19 5 C-19.66 4.34 -20.32 3.68 -21 3 C-13.93924474 -0.32270836 -7.7276932 -0.31806054 0 0 Z " fill="#727272" transform="translate(134,138)"/>
<path d="M0 0 C1.32114304 0.0001133 1.32114304 0.0001133 2.66897583 0.00022888 C3.62109955 0.00539017 4.57322327 0.01055145 5.55419922 0.01586914 C7.01489334 0.01799156 7.01489334 0.01799156 8.50509644 0.02015686 C11.62305745 0.02576566 14.74094732 0.03831966 17.85888672 0.05102539 C19.96956277 0.05603926 22.08023994 0.06060236 24.19091797 0.06469727 C29.37193193 0.07573794 34.55290424 0.09248466 39.73388672 0.11352539 C39.73388672 0.77352539 39.73388672 1.43352539 39.73388672 2.11352539 C33.50459318 2.30684632 27.27499458 2.484319 21.04492188 2.65063477 C18.92437455 2.70913262 16.8039251 2.77129523 14.68359375 2.8371582 C11.64064347 2.93105008 8.59758774 3.01187474 5.55419922 3.09008789 C4.6020755 3.12228424 3.64995178 3.15448059 2.66897583 3.18765259 C1.34783279 3.21791031 1.34783279 3.21791031 0 3.2487793 C-0.77721405 3.27098541 -1.5544281 3.29319153 -2.35519409 3.31607056 C-4.26611328 3.11352539 -4.26611328 3.11352539 -6.26611328 1.11352539 C-3.93601349 -0.05152451 -2.59364251 -0.00741041 0 0 Z " fill="#303030" transform="translate(406.26611328125,152.886474609375)"/>
<path d="M0 0 C0.99 0.33 1.98 0.66 3 1 C2.5401863 4.58654688 1.75760557 7.85179579 0.5625 11.25 C-3.18818577 22.33739305 -3.54718485 33.39363277 -4 45 C-4.33 45 -4.66 45 -5 45 C-5.82128862 16.01167049 -5.82128862 16.01167049 -1 3 C-0.67 2.01 -0.34 1.02 0 0 Z " fill="#545454" transform="translate(208,212)"/>
<path d="M0 0 C-1.98 0.99 -1.98 0.99 -4 2 C-3.67 3.32 -3.34 4.64 -3 6 C-7.62 7.32 -12.24 8.64 -17 10 C-16.67 8.68 -16.34 7.36 -16 6 C-16.99 5.34 -17.98 4.68 -19 4 C-17.25093469 3.35163958 -15.50070781 2.70641216 -13.75 2.0625 C-12.77546875 1.70285156 -11.8009375 1.34320313 -10.796875 0.97265625 C-4.15742397 -1.33631485 -4.15742397 -1.33631485 0 0 Z " fill="#4D4D4D" transform="translate(284,187)"/>
<path d="M0 0 C10.48713235 10.1875 10.48713235 10.1875 11 16 C10.01 16.33 9.02 16.66 8 17 C7.55269531 16.40832031 7.10539062 15.81664062 6.64453125 15.20703125 C3.31190989 10.85117433 -0.00121485 6.75643454 -4 3 C-2.68 2.01 -1.36 1.02 0 0 Z " fill="#393939" transform="translate(354,181)"/>
<path d="M0 0 C3.79160297 -0.05786668 7.58309311 -0.09355054 11.375 -0.125 C12.45523438 -0.14175781 13.53546875 -0.15851563 14.6484375 -0.17578125 C15.6796875 -0.18222656 16.7109375 -0.18867188 17.7734375 -0.1953125 C19.20308838 -0.21102295 19.20308838 -0.21102295 20.66162109 -0.22705078 C23 0 23 0 25 2 C22.68616353 3.15691824 21.18285146 3.18311371 18.60546875 3.28125 C17.73212891 3.31863281 16.85878906 3.35601562 15.95898438 3.39453125 C15.04439453 3.42933594 14.12980469 3.46414062 13.1875 3.5 C11.38918045 3.56931424 9.59099167 3.64212595 7.79296875 3.71875 C6.9939917 3.74904297 6.19501465 3.77933594 5.37182617 3.81054688 C2.85446251 4.01162502 0.46492655 4.45959227 -2 5 C-1.34 3.35 -0.68 1.7 0 0 Z " fill="#313131" transform="translate(141,129)"/>
<path d="M0 0 C2.24609375 -0.28515625 2.24609375 -0.28515625 5 0 C11.71632675 6.2160417 17.14092107 15.0426197 19 24 C18.54296875 26.20703125 18.54296875 26.20703125 18 28 C17.67128906 27.11699219 17.34257812 26.23398438 17.00390625 25.32421875 C13.02705698 15.29048793 7.79098646 7.59312014 0 0 Z " fill="#5B5B5B" transform="translate(319,215)"/>
<path d="M0 0 C5.08335725 0.15404113 7.35754718 3.02068432 10.64453125 6.50390625 C11.09183594 6.99761719 11.53914063 7.49132812 12 8 C11.34 9.32 10.68 10.64 10 12 C8.53426066 11.09522263 7.07764244 10.17565859 5.625 9.25 C4.81289063 8.73953125 4.00078125 8.2290625 3.1640625 7.703125 C0.89574673 5.9179523 -0.08233157 4.71983656 -1 2 C-0.67 1.34 -0.34 0.68 0 0 Z " fill="#3B3B3B" transform="translate(323,196)"/>
<path d="M0 0 C1.02480469 0.00322266 2.04960937 0.00644531 3.10546875 0.00976562 C4.16894531 0.01814453 5.23242188 0.02652344 6.328125 0.03515625 C7.40707031 0.03966797 8.48601562 0.04417969 9.59765625 0.04882812 C12.25786883 0.06059898 14.91796865 0.07704226 17.578125 0.09765625 C17.578125 0.42765625 17.578125 0.75765625 17.578125 1.09765625 C7.183125 1.59265625 7.183125 1.59265625 -3.421875 2.09765625 C-3.421875 2.75765625 -3.421875 3.41765625 -3.421875 4.09765625 C2.518125 4.42765625 8.458125 4.75765625 14.578125 5.09765625 C14.578125 5.42765625 14.578125 5.75765625 14.578125 6.09765625 C6.658125 6.09765625 -1.261875 6.09765625 -9.421875 6.09765625 C-9.421875 4.44765625 -9.421875 2.79765625 -9.421875 1.09765625 C-6.21405414 0.14389058 -3.34000104 -0.01855556 0 0 Z " fill="#535353" transform="translate(285.421875,155.90234375)"/>
<path d="M0 0 C0.33 0.66 0.66 1.32 1 2 C1.66 2 2.32 2 3 2 C2.731875 3.0725 2.46375 4.145 2.1875 5.25 C1.91679687 6.34054688 1.91679687 6.34054688 1.640625 7.453125 C1.18148515 9.27848588 0.71147003 11.10112459 0.234375 12.921875 C-1.24143867 18.622567 -2.43621403 24.1366259 -3 30 C-3.33 30 -3.66 30 -4 30 C-4.50754501 19.14417626 -3.62668409 10.36195453 0 0 Z " fill="#565656" transform="translate(236,222)"/>
<path d="M0 0 C-0.70125 0.680625 -1.4025 1.36125 -2.125 2.0625 C-4.83858912 4.74525288 -7.20855121 7.65083924 -9.5703125 10.64453125 C-11 12 -11 12 -14 12 C-14.99 12.495 -14.99 12.495 -16 13 C-13.48809381 3.99900282 -9.5144068 -0.35903422 0 0 Z " fill="#444444" transform="translate(118,142)"/>
<path d="M0 0 C0.7031987 0.00707474 1.4063974 0.01414948 2.13090515 0.0214386 C4.36312102 0.04928913 6.59276952 0.11199805 8.82421875 0.17578125 C10.34306256 0.20087674 11.86194595 0.22368773 13.38085938 0.24414062 C17.09197123 0.29908118 20.80159416 0.38528386 24.51171875 0.48828125 C24.51171875 0.81828125 24.51171875 1.14828125 24.51171875 1.48828125 C9.16671875 1.98328125 9.16671875 1.98328125 -6.48828125 2.48828125 C-6.81828125 4.46828125 -7.14828125 6.44828125 -7.48828125 8.48828125 C-8.47828125 8.48828125 -9.46828125 8.48828125 -10.48828125 8.48828125 C-10.81828125 9.14828125 -11.14828125 9.80828125 -11.48828125 10.48828125 C-12.14828125 10.48828125 -12.80828125 10.48828125 -13.48828125 10.48828125 C-13.19845838 7.10701446 -12.53112801 5.5426998 -10.40551758 2.84301758 C-6.68321144 -0.16155541 -4.73550096 -0.09433269 0 0 Z " fill="#535353" transform="translate(147.48828125,127.51171875)"/>
<path d="M0 0 C0.66 0.33 1.32 0.66 2 1 C3.5501292 6.79104872 3.11010699 12.92778809 3.0625 18.875 C3.05798828 19.94492188 3.05347656 21.01484375 3.04882812 22.1171875 C3.03709749 24.74484986 3.02068228 27.37239538 3 30 C2.67 30 2.34 30 2 30 C1.92652344 28.76636719 1.92652344 28.76636719 1.8515625 27.5078125 C1.3838056 20.52371816 0.58560773 13.81965265 -1 7 C-0.34 7 0.32 7 1 7 C0.67 4.69 0.34 2.38 0 0 Z " fill="#4A4A4A" transform="translate(348,225)"/>
<path d="M0 0 C0.66 0.33 1.32 0.66 2 1 C-0.64 2.65 -3.28 4.3 -6 6 C-5.01 7.485 -5.01 7.485 -4 9 C-5.98 9.33 -7.96 9.66 -10 10 C-10.33 9.34 -10.66 8.68 -11 8 C-11.99 7.34 -12.98 6.68 -14 6 C-12.23002526 5.18563132 -10.45898848 4.3735706 -8.6875 3.5625 C-7.70136719 3.11003906 -6.71523438 2.65757812 -5.69921875 2.19140625 C-3 1 -3 1 0 0 Z " fill="#545454" transform="translate(263,160)"/>
<path d="M0 0 C1 3 1 3 1 6 C1.99 6.33 2.98 6.66 4 7 C2.75 9 2.75 9 1 11 C-3 11 -3 11 -5 10 C-4.49701212 5.59885603 -2.91227269 3.28804981 0 0 Z " fill="#444444" transform="translate(213,113)"/>
<path d="M0 0 C0 0.33 0 0.66 0 1 C-1.26457031 1.03867188 -1.26457031 1.03867188 -2.5546875 1.078125 C-3.65039062 1.13484375 -4.74609375 1.1915625 -5.875 1.25 C-6.96554688 1.29640625 -8.05609375 1.3428125 -9.1796875 1.390625 C-10.57574219 1.69226563 -10.57574219 1.69226563 -12 2 C-13.23350964 3.92518545 -13.23350964 3.92518545 -14 6 C-17.125 7.25 -17.125 7.25 -20 8 C-19.67 7.01 -19.34 6.02 -19 5 C-19.66 4.34 -20.32 3.68 -21 3 C-13.93924474 -0.32270836 -7.7276932 -0.31806054 0 0 Z " fill="#5D5D5D" transform="translate(134,138)"/>
<path d="M0 0 C3.48331435 3.01887244 4.79157144 5.56909529 6 10 C5.34 10 4.68 10 4 10 C3.67 10.99 3.34 11.98 3 13 C-1.07877462 5.9452954 -1.07877462 5.9452954 -0.75 2 C-0.5025 1.34 -0.255 0.68 0 0 Z " fill="#4F4F4F" transform="translate(364,193)"/>
<path d="M0 0 C3.3125 1.3125 3.3125 1.3125 6 3 C5.34 3.66 4.68 4.32 4 5 C4 5.99 4 6.98 4 8 C0.54074837 6.7508258 -2.14693203 5.32472205 -5 3 C-2.875 1.3125 -2.875 1.3125 0 0 Z " fill="#464646" transform="translate(338,169)"/>
<path d="M0 0 C1.98 0.99 1.98 0.99 4 2 C4 5.3 4 8.6 4 12 C3.34 11.34 2.68 10.68 2 10 C1.01 10.495 1.01 10.495 0 11 C0 7.37 0 3.74 0 0 Z " fill="#3F3F3F" transform="translate(399,154)"/>
<path d="M0 0 C1.32 0.33 2.64 0.66 4 1 C4 1.99 4 2.98 4 4 C-4.25 4 -12.5 4 -21 4 C-21 3.67 -21 3.34 -21 3 C-11.1 2.505 -11.1 2.505 -1 2 C-0.67 1.34 -0.34 0.68 0 0 Z " fill="#E7E7E7" transform="translate(170,134)"/>
<path d="M0 0 C1.32 0 2.64 0 4 0 C5.5625 2.8125 5.5625 2.8125 7 6 C6.67 6.99 6.34 7.98 6 9 C5.34 9 4.68 9 4 9 C0.88002198 5.69649386 0 4.67590167 0 0 Z " fill="#3D3D3D" transform="translate(358,189)"/>
<path d="M0 0 C0.99 0 1.98 0 3 0 C4.42258812 3.82320557 5.24042276 6.91281305 5 11 C4.34 11 3.68 11 3 11 C0 4.5 0 4.5 0 0 Z " fill="#3C3C3C" transform="translate(344,221)"/>
<path d="M0 0 C2.4375 -0.4375 2.4375 -0.4375 5 0 C6.8125 2 6.8125 2 8 4 C7.67 4.66 7.34 5.32 7 6 C3.85262818 5.30058404 0.97411124 4.23921302 -2 3 C-1.34 2.01 -0.68 1.02 0 0 Z " fill="#3F3F3F" transform="translate(456,142)"/>
<path d="M0 0 C4.10839064 1.45002023 7.50344613 3.3979134 11 6 C11 6.66 11 7.32 11 8 C6.97488434 6.78310457 3.40742883 5.50546238 0 3 C0 2.01 0 1.02 0 0 Z " fill="#414141" transform="translate(312,208)"/>
<path d="M0 0 C0 0.99 0 1.98 0 3 C-1.65 3.33 -3.3 3.66 -5 4 C-5.66 2.68 -6.32 1.36 -7 0 C-4.3333581 -1.33332095 -2.83319697 -0.67102033 0 0 Z " fill="#363636" transform="translate(337,168)"/>
<path d="M0 0 C0.66 0 1.32 0 2 0 C4.24828052 4.49656104 4.16682272 8.07872966 4 13 C1.27835324 10.27835324 0.89427524 7.70485455 0 4 C0 2.68 0 1.36 0 0 Z " fill="#3D3D3D" transform="translate(375,219)"/>
<path d="M0 0 C0.99 0.33 1.98 0.66 3 1 C2.67 2.65 2.34 4.3 2 6 C1.01 6 0.02 6 -1 6 C-1.33 6.66 -1.66 7.32 -2 8 C-2.66 8 -3.32 8 -4 8 C-3.50168276 4.31245243 -2.89932357 2.39509338 0 0 Z " fill="#454545" transform="translate(138,130)"/>
<path d="M0 0 C2.1875 -0.375 2.1875 -0.375 5 0 C6.99022836 1.83961648 8.38989899 3.79186148 10 6 C9.01 6.66 8.02 7.32 7 8 C6.401875 7.236875 5.80375 6.47375 5.1875 5.6875 C3.53040668 3.6516425 1.89702326 1.8021721 0 0 Z " fill="#505050" transform="translate(319,215)"/>
<path d="M0 0 C0.99 0 1.98 0 3 0 C3 0.66 3 1.32 3 2 C3.66 2.33 4.32 2.66 5 3 C3.35 4.32 1.7 5.64 0 7 C-0.33 6.34 -0.66 5.68 -1 5 C-1.66 4.67 -2.32 4.34 -3 4 C-1.6875 2 -1.6875 2 0 0 Z " fill="#4A4A4A" transform="translate(246,206)"/>
<path d="M0 0 C0.93343555 3.06700251 1.03969872 5.50719809 0.6875 8.6875 C0.60886719 9.47511719 0.53023437 10.26273438 0.44921875 11.07421875 C0.30097656 11.70972656 0.15273437 12.34523437 0 13 C-0.99 13.495 -0.99 13.495 -2 14 C-1.85866501 12.22880197 -1.71176792 10.45804713 -1.5625 8.6875 C-1.48128906 7.70136719 -1.40007812 6.71523437 -1.31640625 5.69921875 C-1 3 -1 3 0 0 Z " fill="#4F4F4F" transform="translate(206,218)"/>
<path d="M0 0 C-0.75 1.9375 -0.75 1.9375 -2 4 C-4.125 4.75 -4.125 4.75 -6 5 C-6 3.35 -6 1.7 -6 0 C-3 -1 -3 -1 0 0 Z " fill="#333333" transform="translate(261,198)"/>
<path d="M0 0 C2.97 0.495 2.97 0.495 6 1 C4.35 2.65 2.7 4.3 1 6 C1 5.01 1 4.02 1 3 C-0.32 3.33 -1.64 3.66 -3 4 C-2.01 2.68 -1.02 1.36 0 0 Z " fill="#535353" transform="translate(226,184)"/>
<path d="M0 0 C0 0.66 0 1.32 0 2 C-0.99 2 -1.98 2 -3 2 C-3 2.66 -3 3.32 -3 4 C-4.98 4 -6.96 4 -9 4 C-9 3.34 -9 2.68 -9 2 C-5.62902617 0.50178941 -3.79557881 0 0 0 Z " fill="#3B3B3B" transform="translate(322,161)"/>
<path d="M0 0 C0.66 0.33 1.32 0.66 2 1 C2.4140625 3.28515625 2.4140625 3.28515625 2.625 6.0625 C2.69976562 6.98160156 2.77453125 7.90070313 2.8515625 8.84765625 C2.92503906 9.91306641 2.92503906 9.91306641 3 11 C2.01 11.66 1.02 12.32 0 13 C-0.33 11.02 -0.66 9.04 -1 7 C-0.34 7 0.32 7 1 7 C0.67 4.69 0.34 2.38 0 0 Z " fill="#7B7B7B" transform="translate(348,225)"/>
<path d="M0 0 C0.99 0 1.98 0 3 0 C3.33 1.65 3.66 3.3 4 5 C3.34 5 2.68 5 2 5 C1.67 5.99 1.34 6.98 1 8 C0.67 5.36 0.34 2.72 0 0 Z " fill="#595959" transform="translate(373,214)"/>
<path d="M0 0 C0.99 0.33 1.98 0.66 3 1 C2.6875 3.375 2.6875 3.375 2 6 C1.01 6.66 0.02 7.32 -1 8 C-0.67 6.35 -0.34 4.7 0 3 C-0.66 2.67 -1.32 2.34 -2 2 C-1.34 1.34 -0.68 0.68 0 0 Z " fill="#434343" transform="translate(253,199)"/>
<path d="M0 0 C0 1.32 0 2.64 0 4 C-1.32 4 -2.64 4 -4 4 C-4 4.99 -4 5.98 -4 7 C-4.66 7 -5.32 7 -6 7 C-5.39816251 4.97954558 -4.72693904 2.97888961 -4 1 C-2 0 -2 0 0 0 Z " fill="#353535" transform="translate(227,187)"/>
<path d="M0 0 C0.33 1.32 0.66 2.64 1 4 C0.01 4.66 -0.98 5.32 -2 6 C-2.66 5.67 -3.32 5.34 -4 5 C-3.6875 3.0625 -3.6875 3.0625 -3 1 C-2.01 0.67 -1.02 0.34 0 0 Z " fill="#373737" transform="translate(245,210)"/>
<path d="M0 0 C2.31 0 4.62 0 7 0 C5.35 1.65 3.7 3.3 2 5 C1.01 4.67 0.02 4.34 -1 4 C-0.67 2.68 -0.34 1.36 0 0 Z " fill="#333333" transform="translate(111,142)"/>
<path d="M0 0 C-0.33 1.65 -0.66 3.3 -1 5 C-2.9375 4.625 -2.9375 4.625 -5 4 C-5.33 3.34 -5.66 2.68 -6 2 C-2.25 0 -2.25 0 0 0 Z " fill="#2F2F2F" transform="translate(278,188)"/>
<path d="M0 0 C0.99 0.99 1.98 1.98 3 3 C2.01 3.495 2.01 3.495 1 4 C0.34 3.67 -0.32 3.34 -1 3 C-0.67 4.32 -0.34 5.64 0 7 C-1.32 5.68 -2.64 4.36 -4 3 C-2.68 2.01 -1.36 1.02 0 0 Z " fill="#515151" transform="translate(354,181)"/>
<path d="M0 0 C0.66 0.33 1.32 0.66 2 1 C1.375 2.9375 1.375 2.9375 0 5 C-3.125 5.75 -3.125 5.75 -6 6 C-4 4 -2 2 0 0 Z " fill="#4E4E4E" transform="translate(220,107)"/>
</svg>
